<svg width="50" height="50" viewBox="0 0 50 50" fill="none" xmlns="http://www.w3.org/2000/svg">
<path d="M10.6524 26C9.19524 26 7.87674 25.6787 6.69724 25.0362C5.51834 24.3929 4.50353 23.4972 3.65313 22.349C2.80333 21.2012 2.14842 19.8699 1.68869 18.3546C1.22956 16.8396 1 15.21 1 13.466C1 11.7212 1.22956 10.0911 1.68869 8.57581C2.14842 7.06088 2.79885 5.73508 3.63998 4.59878C4.48171 3.46249 5.49622 2.57902 6.68409 1.94796C7.87256 1.31612 9.19524 1 10.6524 1C12.092 1 13.4054 1.31612 14.5933 1.94796C15.7817 2.57902 16.7962 3.46249 17.6374 4.59878C18.4782 5.73508 19.1325 7.06682 19.6006 8.59321C20.0693 10.12 20.3037 11.7441 20.3037 13.466C20.3037 15.21 20.0693 16.8396 19.6006 18.3546C19.1325 19.8699 18.4782 21.2012 17.6374 22.349C16.7962 23.4972 15.7817 24.3929 14.5933 25.0362C13.4054 25.6787 12.092 26 10.6524 26ZM10.6524 21.075C11.4153 21.075 12.1219 20.8859 12.7723 20.5069C13.4227 20.1282 13.9817 19.5949 14.4498 18.9069C14.9185 18.2181 15.2826 17.409 15.5426 16.4792C15.8033 15.5486 15.9336 14.5445 15.9336 13.466C15.9336 12.3867 15.8033 11.388 15.5426 10.4702C15.2826 9.55147 14.9185 8.74791 14.4498 8.05988C13.9817 7.37107 13.4227 6.83734 12.7723 6.45831C12.1219 6.07968 11.4153 5.89017 10.6524 5.89017C9.87108 5.89017 9.15967 6.07968 8.51821 6.45831C7.87645 6.83734 7.31718 7.37107 6.84072 8.05988C6.36396 8.74791 5.99958 9.557 5.7479 10.4876C5.49682 11.4173 5.37127 12.41 5.37127 13.466C5.37127 14.5445 5.49682 15.5486 5.7479 16.4792C5.99958 17.409 6.36396 18.2181 6.84072 18.9069C7.31718 19.5949 7.87645 20.1282 8.51821 20.5069C9.15967 20.8859 9.87108 21.075 10.6524 21.075Z" fill="#DAEBD4"/>
<path d="M27.7181 25.9651C26.2092 25.9651 24.8692 25.5635 23.6984 24.7607C22.5281 23.9568 21.6135 22.809 20.9544 21.317C20.295 19.8243 19.9656 18.045 19.9656 15.979V1.44775H24.2842V16.2892C24.2842 17.1841 24.4229 17.9932 24.7003 18.7169C24.9777 19.4397 25.3765 20.0138 25.8972 20.4387C26.4176 20.8628 27.0247 21.0749 27.7181 21.0749C28.4289 21.0749 29.0405 20.8628 29.5522 20.4387C30.064 20.0138 30.4585 19.4397 30.7359 18.7169C31.0133 17.9932 31.152 17.1841 31.152 16.2892V1.44775H35.4707V15.979C35.4707 18.045 35.1365 19.8243 34.4687 21.317C33.8016 22.809 32.8869 23.9568 31.7247 24.7607C30.5626 25.5635 29.227 25.9651 27.7181 25.9651Z" fill="#DAEBD4"/>
<path d="M45.3318 25.552C44.2214 25.552 43.2454 25.2252 42.4037 24.5708C41.5626 23.9168 40.9038 23.0389 40.4273 21.9374C39.9505 20.8351 39.7123 19.6063 39.7123 18.2516V6.26829H34.7683V1.44775H49.0001V6.26829H44.0824V18.7675C44.0824 19.2961 44.2211 19.7558 44.4985 20.1459C44.7758 20.5364 45.1229 20.7315 45.5399 20.7315H46.9699V25.552H45.3318Z" fill="#DAEBD4"/>
<path d="M7.8216 49.6916C6.65932 49.6916 5.63973 49.3646 4.76286 48.7101C3.8866 48.056 3.20698 47.1873 2.72369 46.1047C2.24103 45.0213 2 43.8251 2 42.5162V26H6.50736V42.9221C6.50736 43.4635 6.65932 43.9375 6.96353 44.3439C7.26743 44.7506 7.64314 44.9536 8.09037 44.9536H13.0527V49.6916H7.8216Z" fill="#DAEBD4"/>
<path d="M12.1138 49.6916V44.9536H15.3599V30.738H12.1138V26H23.0863V30.738H19.8402V44.9536H23.0863V49.6916H12.1138Z" fill="#DAEBD4"/>
<path d="M23.0312 49.6916V33.0059C23.0312 31.6974 23.2858 30.5125 23.7956 29.4516C24.306 28.3908 24.9946 27.5504 25.8619 26.9302C26.7289 26.3103 27.6992 26 28.7727 26H35.7742V30.738H29.3361C28.8356 30.738 28.4106 30.9636 28.0614 31.4147C27.7128 31.8657 27.5386 32.4187 27.5386 33.0728V36.4918H34.8618V41.1956H27.5386V49.6916H23.0312Z" fill="#DAEBD4"/>
<path d="M45.2176 49.6916C44.0726 49.6916 43.0662 49.3704 42.1983 48.7272C41.331 48.0844 40.6517 47.2215 40.1604 46.1389C39.6688 45.0555 39.4231 43.8477 39.4231 42.5162V30.738H34.3252V26H49V30.738H43.9292V43.0233C43.9292 43.5428 44.0722 43.9947 44.3583 44.3781C44.6443 44.7619 45.0021 44.9536 45.4321 44.9536H46.9066V49.6916H45.2176Z" fill="#DAEBD4"/>
</svg>
